<svg xmlns="http://www.w3.org/2000/svg" viewBox="0 0 512 512">
  <defs>
    <linearGradient id="g" x1="0" y1="0" x2="1" y2="1">
      <stop offset="0" stop-color="#34d399"/>
      <stop offset="1" stop-color="#a3e635"/>
    </linearGradient>
  </defs>
  <rect width="512" height="512" rx="120" fill="#060a09"/>
  <path d="M356 170c-40 0-74 22-92 50-18-28-52-50-92-50-58 0-104 46-104 104 0 92 88 142 196 214 108-72 196-122 196-214 0-58-46-104-104-104z"
        fill="url(#g)" opacity="0.95"/>
  <path d="M256 388c-46-32-122-72-122-132 0-28 22-50 50-50 36 0 64 28 72 62 8-34 36-62 72-62 28 0 50 22 50 50 0 60-76 100-122 132z"
        fill="rgba(255,255,255,0.10)"/>
</svg>

